<svg xmlns="http://www.w3.org/2000/svg" width="22" height="22" viewBox="0 0 22 22">
  <path id="calendar-delete" d="M4.385,1V2.692H3.538A2.559,2.559,0,0,0,1,5.244v15.2A2.56,2.56,0,0,0,3.538,23H20.462A2.56,2.56,0,0,0,23,20.442V5.244a2.559,2.559,0,0,0-2.538-2.552h-.846V1H17.923V2.692H6.077V1ZM3.538,4.385h.846V6.077H6.077V4.385H17.923V6.077h1.692V4.385h.846a.838.838,0,0,1,.846.859V7.769H2.692V5.244A.838.838,0,0,1,3.538,4.385ZM2.692,9.462H21.308v10.98a.844.844,0,0,1-.846.866H3.538a.844.844,0,0,1-.846-.866ZM9,11.194l-1.19,1.19,2.995,3L7.809,18.379,9,19.582l3-3,3,3,1.19-1.2L13.2,15.385l2.995-3L15,11.194l-3,2.995Z" transform="translate(-1 -1)" fill="#f04c46"/>
</svg>
