<svg id="approved" xmlns="http://www.w3.org/2000/svg" width="21.285" height="21.285" viewBox="0 0 21.285 21.285">
  <path id="Path_175" data-name="Path 175" d="M10.643,21.285A10.643,10.643,0,1,1,21.285,10.643,10.643,10.643,0,0,1,10.643,21.285Zm0-19.866a9.224,9.224,0,1,0,9.224,9.224,9.224,9.224,0,0,0-9.224-9.224Z" fill="#2bc083"/>
  <path id="Path_176" data-name="Path 176" d="M11.379,18.506a.71.71,0,0,1-.492-.2l-3.67-3.548a.711.711,0,1,1,.99-1.02L11.37,16.8,17.846,10.2a.71.71,0,1,1,1.012.993l-6.972,7.1A.71.71,0,0,1,11.379,18.506Z" transform="translate(-2.034 -2.897)" fill="#2bc083"/>
</svg>
