<svg id="n" xmlns="http://www.w3.org/2000/svg" width="28.178" height="23.843" viewBox="0 0 28.178 23.843">
  <path id="Path_38" data-name="Path 38" d="M28.145,17.271a8.317,8.317,0,0,0,2.124-4.046,1.021,1.021,0,0,0-.217-.881,1.146,1.146,0,0,0-.809-.419,6.624,6.624,0,0,1-4.826-2.471,6.455,6.455,0,0,1-1.228-4.942,1.085,1.085,0,0,0-.246-.881,1.071,1.071,0,0,0-.824-.39,8.319,8.319,0,0,0-8.309,8.309,6.55,6.55,0,0,0,.043.751,8.346,8.346,0,0,0-4.884,4.118,5.532,5.532,0,0,0-1.3-.173,5.419,5.419,0,0,0,0,10.838H25.009a5.411,5.411,0,0,0,3.136-9.826ZM15.978,11.563a6.141,6.141,0,0,1,4.971-6.026,8.57,8.57,0,0,0,1.763,5.246A8.677,8.677,0,0,0,27.8,13.919a6.05,6.05,0,0,1-1.864,2.442,4.969,4.969,0,0,0-2.225.087,8.288,8.288,0,0,0-7.37-4.509,2.165,2.165,0,0,0-.318.029c0-.13-.043-.26-.043-.39ZM25.009,24.93H7.669a3.251,3.251,0,1,1,0-6.5,3.219,3.219,0,0,1,1.416.318h.058c.014,0,.029.014.043.029a.492.492,0,0,0,.2.029c.043,0,.1.029.145.029h.014a.848.848,0,0,0,.332-.058c.043-.014.087-.043.13-.058A.819.819,0,0,0,10.2,18.6a.935.935,0,0,0,.13-.116l.13-.173c.014-.029.058-.058.072-.087a.087.087,0,0,1,.014-.058.146.146,0,0,0,.014-.043,6.15,6.15,0,0,1,5.78-4.046A6.03,6.03,0,0,1,22,17.835c.014.043.058.072.072.116a1.06,1.06,0,0,0,.072.289,1.087,1.087,0,0,0,1.445.506,3.131,3.131,0,0,1,1.416-.318,3.251,3.251,0,1,1,0,6.5Z" transform="translate(-2.25 -3.24)" fill="#7554d4"/>
</svg>
