<svg xmlns="http://www.w3.org/2000/svg" width="16.538" height="13.994" viewBox="0 0 16.538 13.994">
  <g id="n" transform="translate(-2.25 -3.24)">
    <path id="Path_38" data-name="Path 38" d="M17.448,11.475A4.881,4.881,0,0,0,18.695,9.1a.6.6,0,0,0-.127-.517.673.673,0,0,0-.475-.246,3.888,3.888,0,0,1-2.833-1.45,3.788,3.788,0,0,1-.721-2.9.637.637,0,0,0-.144-.517.628.628,0,0,0-.483-.229A4.883,4.883,0,0,0,9.035,8.117a3.844,3.844,0,0,0,.025.441,4.9,4.9,0,0,0-2.867,2.417,3.247,3.247,0,0,0-.763-.1,3.18,3.18,0,1,0,0,6.361H15.608a3.176,3.176,0,0,0,1.84-5.767Zm-7.141-3.35a3.6,3.6,0,0,1,2.918-3.537,5.03,5.03,0,0,0,1.035,3.079,5.093,5.093,0,0,0,2.985,1.84,3.551,3.551,0,0,1-1.094,1.433,2.916,2.916,0,0,0-1.306.051,4.864,4.864,0,0,0-4.325-2.646,1.27,1.27,0,0,0-.187.017c0-.076-.025-.153-.025-.229Zm5.3,7.845H5.43a1.908,1.908,0,1,1,0-3.817,1.889,1.889,0,0,1,.831.187H6.3c.008,0,.017.008.025.017a.289.289,0,0,0,.119.017c.025,0,.059.017.085.017h.008a.5.5,0,0,0,.2-.034c.025-.008.051-.025.076-.034a.481.481,0,0,0,.11-.068.549.549,0,0,0,.076-.068l.076-.1c.008-.017.034-.034.042-.051A.051.051,0,0,1,7.118,12a.085.085,0,0,0,.008-.025A3.609,3.609,0,0,1,10.519,9.6a3.539,3.539,0,0,1,3.325,2.205c.008.025.034.042.042.068a.622.622,0,0,0,.042.17.638.638,0,0,0,.848.3,1.838,1.838,0,0,1,.831-.187,1.908,1.908,0,0,1,0,3.817Z" transform="translate(0 0)" fill="#fff"/>
  </g>
</svg>
