<svg fill="#000000" xmlns="http://www.w3.org/2000/svg"  viewBox="0 0 16 16" width="16px" height="16px"><path d="M 3 1 L 3 2 L 2.5 2 C 1.675781 2 1 2.675781 1 3.5 L 1 12.5 C 1 13.324219 1.675781 14 2.5 14 L 12.5 14 C 13.152344 14 13.703125 13.582031 13.90625 13 L 2.5 13 C 2.21875 13 2 12.78125 2 12.5 L 2 6 L 14 6 L 14 3.5 C 14 2.675781 13.324219 2 12.5 2 L 12 2 L 12 1 L 11 1 L 11 2 L 4 2 L 4 1 Z M 2.5 3 L 3 3 L 3 4 L 4 4 L 4 3 L 11 3 L 11 4 L 12 4 L 12 3 L 12.5 3 C 12.78125 3 13 3.21875 13 3.5 L 13 5 L 2 5 L 2 3.5 C 2 3.21875 2.21875 3 2.5 3 Z M 12 7 L 12 9 L 9 9 L 9 10 L 12 10 L 12 12 L 14.5 9.5 Z"/></svg>