<svg id="u" xmlns="http://www.w3.org/2000/svg" width="30.836" height="30.836" viewBox="0 0 30.836 30.836">
  <g id="Group_1" data-name="Group 1" transform="translate(0 0)">
    <path id="Path_1" data-name="Path 1" d="M20.073,9.447a7.511,7.511,0,1,0,0,10.627,7.531,7.531,0,0,0,0-10.627ZM18.4,18.4a5.139,5.139,0,1,1,0-7.274,5.144,5.144,0,0,1,0,7.274Z" transform="translate(0.658 0.658)" fill="#01a0d2"/>
    <path id="Path_2" data-name="Path 2" d="M17.385,9.49a1.173,1.173,0,0,0,.838-.348l2.23-2.23a1.185,1.185,0,1,0-1.676-1.676l-2.23,2.23a1.193,1.193,0,0,0,0,1.676,1.173,1.173,0,0,0,.838.348Z" transform="translate(5.861 -0.714)" fill="#01a0d2"/>
    <path id="Path_3" data-name="Path 3" d="M18.223,16.546a1.185,1.185,0,0,0-1.676,1.676l2.23,2.23a1.183,1.183,0,0,0,1.676,0,1.193,1.193,0,0,0,0-1.676l-2.23-2.23Z" transform="translate(5.861 5.861)" fill="#01a0d2"/>
    <path id="Path_4" data-name="Path 4" d="M7.466,16.546l-2.23,2.23a1.193,1.193,0,0,0,0,1.676,1.184,1.184,0,0,0,1.676,0l2.23-2.23a1.185,1.185,0,1,0-1.676-1.676Z" transform="translate(-0.714 5.861)" fill="#01a0d2"/>
    <path id="Path_5" data-name="Path 5" d="M7.466,9.142a1.184,1.184,0,0,0,1.676,0,1.193,1.193,0,0,0,0-1.676l-2.23-2.23A1.185,1.185,0,0,0,5.236,6.913Z" transform="translate(-0.714 -0.714)" fill="#01a0d2"/>
    <path id="Path_6" data-name="Path 6" d="M12.436,7.785A1.2,1.2,0,0,0,13.622,6.6V3.436a1.186,1.186,0,0,0-2.372,0V6.6A1.2,1.2,0,0,0,12.436,7.785Z" transform="translate(2.982 -2.25)" fill="#01a0d2"/>
    <path id="Path_7" data-name="Path 7" d="M22.6,11.25H19.436a1.186,1.186,0,1,0,0,2.372H22.6a1.186,1.186,0,1,0,0-2.372Z" transform="translate(7.052 2.982)" fill="#01a0d2"/>
    <path id="Path_8" data-name="Path 8" d="M12.436,18.25a1.2,1.2,0,0,0-1.186,1.186V22.6a1.186,1.186,0,1,0,2.372,0V19.436A1.2,1.2,0,0,0,12.436,18.25Z" transform="translate(2.982 7.052)" fill="#01a0d2"/>
    <path id="Path_9" data-name="Path 9" d="M7.785,12.436A1.2,1.2,0,0,0,6.6,11.25H3.436a1.186,1.186,0,0,0,0,2.372H6.6A1.2,1.2,0,0,0,7.785,12.436Z" transform="translate(-2.25 2.982)" fill="#01a0d2"/>
  </g>
</svg>
