<svg xmlns="http://www.w3.org/2000/svg" width="21.285" height="21.274" viewBox="0 0 21.285 21.274">
  <g id="l" transform="translate(-2.25 -2.26)">
    <path id="Path_177" data-name="Path 177" d="M22.979,4.355,21.44,2.816a1.923,1.923,0,0,0-2.706,0L14.927,6.624h-6.4A6.281,6.281,0,0,0,2.25,12.9v4.364a6.281,6.281,0,0,0,6.273,6.273h4.364a6.281,6.281,0,0,0,6.273-6.273V10.879L22.979,7.06a1.923,1.923,0,0,0,0-2.706Zm-5.215,5.6h0l-6.426,6.426a.506.506,0,0,1-.2.076H9.6a.27.27,0,0,1-.273-.273V14.643a.314.314,0,0,1,.076-.2l8.357-8.357L19.695,8.02,17.764,9.951Zm-.24,7.3a4.647,4.647,0,0,1-4.637,4.637H8.523A4.647,4.647,0,0,1,3.886,17.25V12.886A4.647,4.647,0,0,1,8.523,8.25h4.768L8.25,13.29a1.9,1.9,0,0,0-.556,1.353v1.538A1.918,1.918,0,0,0,9.6,18.09h1.538a1.963,1.963,0,0,0,1.353-.556L17.524,12.5Zm4.3-11.357-.96.96L18.931,4.922l.96-.96a.506.506,0,0,1,.2-.076.263.263,0,0,1,.2.076L21.822,5.5a.282.282,0,0,1,.076.2.251.251,0,0,1-.076.2Z" transform="translate(0 0)" fill="#2b2d41"/>
  </g>
</svg>
