<svg xmlns="http://www.w3.org/2000/svg" viewBox="0 0 32 32"><g id="eye"><path d="M29.18,13.8C24.1,8.16,16.81,8,16,8A18.07,18.07,0,0,0,2.92,13.77a3.26,3.26,0,0,0-.1,4.43C7.9,23.84,15.19,24,16,24a18.07,18.07,0,0,0,13.08-5.77A3.26,3.26,0,0,0,29.18,13.8Zm-1.55,3.05A16.08,16.08,0,0,1,16,22c-.29,0-7.12-.06-11.69-5.14a1.25,1.25,0,0,1,.06-1.71A16.08,16.08,0,0,1,16,10c.29,0,7.12.06,11.69,5.14A1.25,1.25,0,0,1,27.63,16.85Z"/><path d="M16,11a5,5,0,1,0,5,5A5,5,0,0,0,16,11Zm0,8a3,3,0,1,1,3-3A3,3,0,0,1,16,19Z"/></g></svg>