<svg id="s" xmlns="http://www.w3.org/2000/svg" width="15.4" height="16.278" viewBox="0 0 15.4 16.278">
  <path id="Path_22" data-name="Path 22" d="M17.251,7.467l-3.52-3.142a4.17,4.17,0,0,0-5.562,0L4.649,7.467a4.182,4.182,0,0,0-1.4,3.124v5.6a3.33,3.33,0,0,0,3.3,3.353h8.8a3.33,3.33,0,0,0,3.3-3.353v-5.6A4.2,4.2,0,0,0,17.251,7.467ZM12.93,18.211H8.97v-2.86a1.98,1.98,0,0,1,3.96,0Zm4.4-2.033a2.012,2.012,0,0,1-1.98,2.033h-1.1v-2.86a3.3,3.3,0,0,0-6.6,0v2.86H6.55a2.006,2.006,0,0,1-1.98-2.033v-5.6a2.875,2.875,0,0,1,.959-2.138L9.049,5.3a2.851,2.851,0,0,1,3.8,0l3.52,3.142a2.875,2.875,0,0,1,.959,2.138Z" transform="translate(-3.25 -3.263)" fill="#4e4e4e"/>
</svg>
