<svg xmlns="http://www.w3.org/2000/svg" width="17" height="22.667" viewBox="0 0 17 22.667">
  <g id="hourglass" transform="translate(-6 -2)">
    <path id="Path_65" data-name="Path 65" d="M22.19,23.048h-.98a10.435,10.435,0,0,0-1.271-7.286,9.714,9.714,0,0,0-2.153-2.429A9.714,9.714,0,0,0,19.94,10.9a10.435,10.435,0,0,0,1.271-7.286h.98A.81.81,0,1,0,22.19,2H6.81a.81.81,0,0,0,0,1.619h.98A10.435,10.435,0,0,0,9.06,10.9a9.714,9.714,0,0,0,2.153,2.429A9.714,9.714,0,0,0,9.06,15.762a10.435,10.435,0,0,0-1.271,7.286H6.81a.81.81,0,0,0,0,1.619H22.19a.81.81,0,0,0,0-1.619Zm-12.75,0a8.9,8.9,0,0,1,1-6.42,8.257,8.257,0,0,1,2.6-2.615h0a.907.907,0,0,0,.251-.194v-.04h0a.126.126,0,0,1,.04-.113,1.457,1.457,0,0,0,.065-.17.979.979,0,0,0,0-.154.98.98,0,0,0,0-.154,1.457,1.457,0,0,0-.065-.17.182.182,0,0,0-.04-.113h0a1.344,1.344,0,0,0-.105-.113.81.81,0,0,0-.121-.113h0a8.257,8.257,0,0,1-2.6-2.615A8.9,8.9,0,0,1,9.44,3.619H19.56a8.9,8.9,0,0,1-1,6.42,8.257,8.257,0,0,1-2.6,2.615h0a.809.809,0,0,0-.121.113.672.672,0,0,0-.105.113h0l-.024.13a1.06,1.06,0,0,0-.065.17.98.98,0,0,0,0,.154.98.98,0,0,0,0,.154,1.06,1.06,0,0,0,.065.17l.04.113h0a.7.7,0,0,0,.105.113.809.809,0,0,0,.121.113h0a8.257,8.257,0,0,1,2.6,2.615,8.9,8.9,0,0,1,.98,6.436Z" fill="#01a0d2"/>
    <path id="Path_66" data-name="Path 66" d="M15.632,13.493h.138a5.035,5.035,0,0,0,2.51-1.158,2.825,2.825,0,0,0,.939-2.671A.81.81,0,0,0,18.466,9H12.8a.81.81,0,0,0-.81.648,2.858,2.858,0,0,0,.947,2.671,5.035,5.035,0,0,0,2.51,1.158Zm-1.927-2.874h3.853a1.619,1.619,0,0,1-.372.51,3.5,3.5,0,0,1-1.554.729,3.432,3.432,0,0,1-1.546-.729,1.538,1.538,0,0,1-.38-.51Z" transform="translate(-1.132 -1.333)" fill="#01a0d2"/>
    <path id="Path_67" data-name="Path 67" d="M15.63,18.994a.664.664,0,0,0-.356,0,5.74,5.74,0,0,0-3.141,1.886,4.857,4.857,0,0,0-1.077,3.886.81.81,0,0,0,.81.68h7.189a.81.81,0,0,0,.81-.68,4.857,4.857,0,0,0-1.077-3.886A5.74,5.74,0,0,0,15.63,18.994Zm-3.011,4.857a3.238,3.238,0,0,1,.753-1.91,4.137,4.137,0,0,1,2.08-1.328,4.169,4.169,0,0,1,2.072,1.3,3.238,3.238,0,0,1,.761,1.935Z" transform="translate(-0.952 -3.232)" fill="#01a0d2"/>
  </g>
</svg>
