<svg xmlns="http://www.w3.org/2000/svg" width="26.409" height="26.409" viewBox="0 0 26.409 26.409">
  <path id="Path_163" data-name="Path 163" d="M27.684,19.436a2.6,2.6,0,0,0-3.25-4.063L21.725,17.54a4.411,4.411,0,0,1-2.749.962H16.47V12.407h7.178a2.3,2.3,0,0,0,2.3-2.3A7.861,7.861,0,0,0,18.1,2.25H12.827a7.861,7.861,0,0,0-7.855,7.855,2.3,2.3,0,0,0,2.3,2.3h7.178V18.5H4.85a2.6,2.6,0,0,0-2.6,2.6V22a2.6,2.6,0,0,0,2.6,2.6H6.787L5.135,27.075a1.011,1.011,0,0,0,.284,1.409,1.081,1.081,0,0,0,.569.176,1.017,1.017,0,0,0,.84-.447L9.238,24.6h9.751L21.4,28.212a.984.984,0,0,0,.84.447,1,1,0,0,0,.569-.176,1.023,1.023,0,0,0,.284-1.409L21.183,24.2a6.525,6.525,0,0,0,1.828-1.016L27.7,19.436ZM13.6,6.516A7.962,7.962,0,0,1,15.455,4.5,7.742,7.742,0,0,1,17.31,6.516a8.011,8.011,0,0,1,1.205,3.86H12.407a8.011,8.011,0,0,1,1.205-3.86Zm10.32,3.589a.272.272,0,0,1-.271.271H20.533a10.025,10.025,0,0,0-1.517-4.943A10.082,10.082,0,0,0,18.15,4.3a5.838,5.838,0,0,1,5.769,5.824Zm-16.929,0A5.838,5.838,0,0,1,12.76,4.281a11.47,11.47,0,0,0-.867,1.138,10.025,10.025,0,0,0-1.517,4.943H7.261a.272.272,0,0,1-.271-.271Zm11.986,12.46H4.85A.572.572,0,0,1,4.281,22V21.1a.572.572,0,0,1,.569-.569H18.976A6.491,6.491,0,0,0,23,19.125l2.709-2.167a.576.576,0,0,1,.609-.068.551.551,0,0,1,.325.515.572.572,0,0,1-.217.447h0L21.739,21.6a4.411,4.411,0,0,1-2.749.962Z" transform="translate(-2.25 -2.25)" fill="#2bc083"/>
</svg>
