<svg xmlns="http://www.w3.org/2000/svg" width="13.544" height="13.544" viewBox="0 0 13.544 13.544">
  <path id="Path_58" data-name="Path 58" d="M15.294,11.064A1.334,1.334,0,0,0,13.627,8.98l-1.389,1.111a2.262,2.262,0,0,1-1.41.493H9.543V7.459h3.681A1.18,1.18,0,0,0,14.4,6.278,4.031,4.031,0,0,0,10.376,2.25h-2.7A4.031,4.031,0,0,0,3.646,6.278,1.18,1.18,0,0,0,4.827,7.459H8.508v3.125H3.584A1.334,1.334,0,0,0,2.25,11.918v.458A1.334,1.334,0,0,0,3.584,13.71h.993l-.847,1.271a.518.518,0,0,0,.146.722.554.554,0,0,0,.292.09.522.522,0,0,0,.431-.229L5.834,13.71h5l1.236,1.854a.5.5,0,0,0,.431.229.514.514,0,0,0,.292-.09.525.525,0,0,0,.146-.722l-.979-1.472a3.346,3.346,0,0,0,.938-.521l2.4-1.924ZM8.07,4.438A4.083,4.083,0,0,1,9.022,3.4a3.97,3.97,0,0,1,.952,1.035,4.108,4.108,0,0,1,.618,1.979H7.459a4.108,4.108,0,0,1,.618-1.979Zm5.292,1.841a.139.139,0,0,1-.139.139h-1.6a5.141,5.141,0,0,0-.778-2.535A5.17,5.17,0,0,0,10.4,3.3a2.994,2.994,0,0,1,2.959,2.987Zm-8.682,0A2.994,2.994,0,0,1,7.64,3.292a5.882,5.882,0,0,0-.445.583A5.141,5.141,0,0,0,6.417,6.41H4.82a.139.139,0,0,1-.139-.139Zm6.147,6.39H3.584a.293.293,0,0,1-.292-.292v-.458a.293.293,0,0,1,.292-.292h7.244a3.329,3.329,0,0,0,2.063-.722L14.28,9.793a.3.3,0,0,1,.313-.035.283.283,0,0,1,.167.264.293.293,0,0,1-.111.229h0l-2.4,1.924a2.262,2.262,0,0,1-1.41.493Z" transform="translate(-2.25 -2.25)" fill="#4e4e4e"/>
</svg>
