<svg xmlns="http://www.w3.org/2000/svg" width="28.918" height="28.918" viewBox="0 0 28.918 28.918">
  <path id="Path_21" data-name="Path 21" d="M30.1,21.069a2.849,2.849,0,0,0-3.559-4.449l-2.966,2.373a4.83,4.83,0,0,1-3.01,1.053H17.821V13.372h7.86A2.519,2.519,0,0,0,28.2,10.851a8.607,8.607,0,0,0-8.6-8.6H13.832a8.607,8.607,0,0,0-8.6,8.6,2.519,2.519,0,0,0,2.521,2.521h7.86v6.673H5.1A2.848,2.848,0,0,0,2.25,22.893v.979A2.848,2.848,0,0,0,5.1,26.719H7.218L5.409,29.433a1.107,1.107,0,0,0,.311,1.542,1.183,1.183,0,0,0,.623.193,1.114,1.114,0,0,0,.919-.489l2.64-3.96H20.579l2.64,3.96a1.078,1.078,0,0,0,.919.489,1.1,1.1,0,0,0,.623-.193,1.12,1.12,0,0,0,.311-1.542l-2.091-3.144a7.144,7.144,0,0,0,2-1.112l5.131-4.108ZM14.677,6.921a8.719,8.719,0,0,1,2.032-2.21,8.477,8.477,0,0,1,2.032,2.21,8.772,8.772,0,0,1,1.32,4.226H13.372a8.772,8.772,0,0,1,1.32-4.226Zm11.3,3.93a.3.3,0,0,1-.3.3H22.27a10.978,10.978,0,0,0-1.661-5.413,11.039,11.039,0,0,0-.949-1.246,6.393,6.393,0,0,1,6.317,6.377Zm-18.537,0a6.393,6.393,0,0,1,6.317-6.377,12.559,12.559,0,0,0-.949,1.246,10.978,10.978,0,0,0-1.661,5.413H7.737a.3.3,0,0,1-.3-.3ZM20.565,24.495H5.1a.627.627,0,0,1-.623-.623v-.979A.627.627,0,0,1,5.1,22.27H20.565a7.107,7.107,0,0,0,4.4-1.542l2.966-2.373a.63.63,0,0,1,.667-.074.6.6,0,0,1,.356.564.626.626,0,0,1-.237.489h0L23.59,23.442a4.83,4.83,0,0,1-3.01,1.053Z" transform="translate(-2.25 -2.25)" fill="#fff"/>
</svg>
