<?xml version="1.0" encoding="UTF-8"?><svg xmlns="http://www.w3.org/2000/svg" viewBox="0 0 24 24"><g id="a"/><g id="b"/><g id="c"/><g id="d"/><g id="e"/><g id="f"/><g id="g"/><g id="h"/><g id="i"/><g id="j"/><g id="k"/><g id="l"/><g id="m"/><g id="n"/><g id="o"/><g id="p"/><g id="q"/><g id="r"/><g id="s"><g><path d="M12,11.25c-2.62,0-4.75,2.13-4.75,4.75,0,.41,.34,.75,.75,.75h8c.41,0,.75-.34,.75-.75,0-2.62-2.13-4.75-4.75-4.75Zm-3.16,4c.34-1.43,1.63-2.5,3.16-2.5s2.82,1.07,3.16,2.5h-6.33Z"/><path d="M18.89,9.11c-.29-.29-.77-.29-1.06,0l-1.41,1.41c-.29,.29-.29,.77,0,1.06,.15,.15,.34,.22,.53,.22s.38-.07,.53-.22l1.41-1.41c.29-.29,.29-.77,0-1.06Z"/><path d="M7.58,10.52l-1.41-1.41c-.29-.29-.77-.29-1.06,0s-.29,.77,0,1.06l1.41,1.41c.15,.15,.34,.22,.53,.22s.38-.07,.53-.22c.29-.29,.29-.77,0-1.06Z"/><path d="M12,9.75c.41,0,.75-.34,.75-.75v-2c0-.41-.34-.75-.75-.75s-.75,.34-.75,.75v2c0,.41,.34,.75,.75,.75Z"/><path d="M21,15.25h-2c-.41,0-.75,.34-.75,.75s.34,.75,.75,.75h2c.41,0,.75-.34,.75-.75s-.34-.75-.75-.75Z"/><path d="M5,15.25H3c-.41,0-.75,.34-.75,.75s.34,.75,.75,.75h2c.41,0,.75-.34,.75-.75s-.34-.75-.75-.75Z"/></g></g><g id="t"/><g id="u"/></svg>