<svg xmlns="http://www.w3.org/2000/svg" width="24" height="30" viewBox="0 0 24 30">
  <title>Notification</title>
  <g>
    <path d="M12,30a4,4,0,0,1-4-4,1,1,0,0,1,2,0,2,2,0,0,0,4,0,1,1,0,0,1,2,0A4,4,0,0,1,12,30Z" fill="#212121"/>
    <path d="M19.893,27H4.107A3.084,3.084,0,0,1,1.04,24.5a2.986,2.986,0,0,1,1.487-3.111A.987.987,0,0,0,3,20.514V13a9,9,0,0,1,18,0v7.514a.99.99,0,0,0,.474.873A2.986,2.986,0,0,1,22.96,24.5,3.084,3.084,0,0,1,19.893,27ZM12,6a7.008,7.008,0,0,0-7,7v7.514a2.989,2.989,0,0,1-1.491,2.614,1,1,0,0,0-.494,1.048A1.083,1.083,0,0,0,4.107,25H19.893a1.084,1.084,0,0,0,1.093-.825,1,1,0,0,0-.5-1.047A2.99,2.99,0,0,1,19,20.514V13A7.008,7.008,0,0,0,12,6Z" fill="#212121"/>
    <path d="M14,6a1,1,0,0,1-1-1V3a1,1,0,0,0-2,0V5A1,1,0,0,1,9,5V3a3,3,0,0,1,6,0V5A1,1,0,0,1,14,6Z" fill="#212121"/>
    <path d="M1,9.826A1,1,0,0,1,.07,8.457,12.814,12.814,0,0,1,2.3,4.794,1,1,0,1,1,3.807,6.1,10.82,10.82,0,0,0,1.93,9.194,1,1,0,0,1,1,9.826Z" fill="#212121"/>
    <path d="M23,9.826a1,1,0,0,1-.93-.632A10.793,10.793,0,0,0,20.193,6.1a1,1,0,1,1,1.513-1.308A12.815,12.815,0,0,1,23.93,8.457,1,1,0,0,1,23,9.826Z" fill="#212121"/>
  </g>
</svg>
