<svg xmlns="http://www.w3.org/2000/svg" width="15.443" height="16.278" viewBox="0 0 15.443 16.278">
  <g id="l" transform="translate(0)">
    <g id="Group_5" data-name="Group 5" transform="translate(0 0)">
      <path id="Path_25" data-name="Path 25" d="M11.389,17.276H6.38A1.881,1.881,0,0,1,4.5,15.4V7.05A1.884,1.884,0,0,1,6.1,5.2a1.886,1.886,0,0,0,1.536.81h4.174a1.853,1.853,0,0,0,1.536-.81A1.878,1.878,0,0,1,14.937,7.05v3.339a.626.626,0,0,0,1.252,0V7.05a3.142,3.142,0,0,0-2.521-3.072A1.867,1.867,0,0,0,11.806,2.25H7.632A1.874,1.874,0,0,0,5.771,3.978,3.135,3.135,0,0,0,3.25,7.05V15.4a3.131,3.131,0,0,0,3.13,3.13h5.009a.626.626,0,0,0,0-1.252ZM7.632,3.5h4.174a.626.626,0,1,1,0,1.252H7.632a.626.626,0,1,1,0-1.252Z" transform="translate(-3.25 -2.25)" fill="#4e4e4e"/>
      <path id="Path_26" data-name="Path 26" d="M17.38,14.25a3.13,3.13,0,1,0,3.13,3.13A3.131,3.131,0,0,0,17.38,14.25Zm0,5.009a1.878,1.878,0,1,1,1.878-1.878A1.881,1.881,0,0,1,17.38,19.259Z" transform="translate(-5.068 -4.233)" fill="#4e4e4e"/>
      <path id="Path_27" data-name="Path 27" d="M18.821,16.317a.637.637,0,0,0-.843.284l-.442.893-.217-.217a.626.626,0,0,0-.885.885l.835.835a.625.625,0,0,0,.442.184h.1a.635.635,0,0,0,.459-.334l.835-1.67a.622.622,0,0,0-.284-.843Z" transform="translate(-5.399 -4.564)" fill="#4e4e4e"/>
    </g>
  </g>
</svg>
