<svg xmlns="http://www.w3.org/2000/svg" viewBox="0 0 32 32"><g id="hourglass"><path d="M26,28H24.79a12.89,12.89,0,0,0-1.57-9,12,12,0,0,0-2.66-3,12,12,0,0,0,2.66-3,12.89,12.89,0,0,0,1.57-9H26a1,1,0,0,0,0-2H7A1,1,0,0,0,7,4H8.21a12.89,12.89,0,0,0,1.57,9,12,12,0,0,0,2.66,3,12,12,0,0,0-2.66,3,12.89,12.89,0,0,0-1.57,9H7a1,1,0,0,0,0,2H26a1,1,0,0,0,0-2ZM10.25,28a11,11,0,0,1,1.23-7.93,10.2,10.2,0,0,1,3.21-3.23s0,0,0,0A1.12,1.12,0,0,0,15,16.6l0-.05h0c0-.05,0-.1.05-.14a1.8,1.8,0,0,0,.08-.21,1.21,1.21,0,0,0,0-.19,1.21,1.21,0,0,0,0-.19,1.8,1.8,0,0,0-.08-.21s0-.09-.05-.14h0a1.66,1.66,0,0,0-.13-.14,1,1,0,0,0-.15-.14h0a10.2,10.2,0,0,1-3.21-3.23A11,11,0,0,1,10.25,4h12.5a11,11,0,0,1-1.23,7.93,10.2,10.2,0,0,1-3.21,3.23h0a1,1,0,0,0-.15.14.83.83,0,0,0-.13.14h0L18,15.6a1.31,1.31,0,0,0-.08.21,1.21,1.21,0,0,0,0,.19,1.21,1.21,0,0,0,0,.19,1.31,1.31,0,0,0,.08.21l.05.14h0a.86.86,0,0,0,.13.14,1,1,0,0,0,.15.14h0a10.2,10.2,0,0,1,3.21,3.23A11,11,0,0,1,22.75,28Z"/><path d="M16.5,14.55l.17,0a6.22,6.22,0,0,0,3.1-1.43,3.49,3.49,0,0,0,1.16-3.3A1,1,0,0,0,20,9H13a1,1,0,0,0-1,.8,3.53,3.53,0,0,0,1.17,3.3,6.22,6.22,0,0,0,3.1,1.43ZM14.12,11h4.76a2,2,0,0,1-.46.63,4.32,4.32,0,0,1-1.92.9,4.24,4.24,0,0,1-1.91-.9A1.9,1.9,0,0,1,14.12,11Z"/><path d="M16.72,19a.82.82,0,0,0-.44,0,7.09,7.09,0,0,0-3.88,2.33,6,6,0,0,0-1.33,4.8,1,1,0,0,0,1,.84h8.88a1,1,0,0,0,1-.84,6,6,0,0,0-1.33-4.8A7.09,7.09,0,0,0,16.72,19ZM13,25a4,4,0,0,1,.93-2.36A5.11,5.11,0,0,1,16.5,21a5.15,5.15,0,0,1,2.56,1.61A4,4,0,0,1,20,25Z"/></g></svg>