<svg xmlns="http://www.w3.org/2000/svg" width="27.925" height="27.94" viewBox="0 0 27.925 27.94">
  <g id="j" transform="translate(0)">
    <g id="Group_4" data-name="Group 4" transform="translate(0 0)">
      <path id="Path_23" data-name="Path 23" d="M27.99,11.959a.752.752,0,0,1-.5-.429.76.76,0,0,1,.043-.658A2.858,2.858,0,0,0,27.1,7.364L25.041,5.3a2.858,2.858,0,0,0-3.507-.429.715.715,0,0,1-.658.043.722.722,0,0,1-.429-.5A2.864,2.864,0,0,0,17.656,2.24H14.75a2.892,2.892,0,0,0-2.791,2.176.752.752,0,0,1-.429.5.76.76,0,0,1-.658-.043A2.878,2.878,0,0,0,7.364,5.3L5.3,7.364a2.858,2.858,0,0,0-.429,3.507.715.715,0,0,1,.043.658.722.722,0,0,1-.5.429A2.852,2.852,0,0,0,2.24,14.75v2.92a2.88,2.88,0,0,0,2.176,2.791.752.752,0,0,1,.5.429.76.76,0,0,1-.043.658A2.858,2.858,0,0,0,5.3,25.056l2.061,2.061a2.858,2.858,0,0,0,3.507.429.715.715,0,0,1,.658-.043.722.722,0,0,1,.429.5A2.864,2.864,0,0,0,14.75,30.18h2.906A2.892,2.892,0,0,0,20.447,28a.752.752,0,0,1,.429-.5.76.76,0,0,1,.658.043,2.878,2.878,0,0,0,3.507-.429L27.1,25.056a2.858,2.858,0,0,0,.429-3.507.715.715,0,0,1-.043-.658.722.722,0,0,1,.5-.429,2.852,2.852,0,0,0,2.176-2.791V14.75a2.88,2.88,0,0,0-2.176-2.791Zm.029,5.7a.719.719,0,0,1-.558.7A2.9,2.9,0,0,0,25.5,20.046a2.829,2.829,0,0,0,.186,2.576.716.716,0,0,1-.115.887L23.51,25.571a.718.718,0,0,1-.887.115,2.829,2.829,0,0,0-2.576-.186,2.9,2.9,0,0,0-1.689,1.961.731.731,0,0,1-.7.558H14.75a.722.722,0,0,1-.7-.544,2.9,2.9,0,0,0-1.689-1.961,2.979,2.979,0,0,0-1.1-.229,2.872,2.872,0,0,0-1.474.415.716.716,0,0,1-.887-.115L6.835,23.524a.718.718,0,0,1-.115-.887,2.829,2.829,0,0,0,.186-2.576,2.872,2.872,0,0,0-1.961-1.689.718.718,0,0,1-.544-.7V14.75a.719.719,0,0,1,.558-.7A2.9,2.9,0,0,0,6.92,12.36a2.829,2.829,0,0,0-.186-2.576A.716.716,0,0,1,6.849,8.9L8.91,6.835A.738.738,0,0,1,9.8,6.72a2.829,2.829,0,0,0,2.576.186,2.9,2.9,0,0,0,1.689-1.961.731.731,0,0,1,.7-.558H17.67a.722.722,0,0,1,.7.544A2.9,2.9,0,0,0,20.06,6.892a2.826,2.826,0,0,0,2.576-.186.716.716,0,0,1,.887.115l2.061,2.061a.718.718,0,0,1,.115.887,2.829,2.829,0,0,0-.186,2.576,2.872,2.872,0,0,0,1.961,1.689h0a.718.718,0,0,1,.544.7v2.92Z" transform="translate(-2.24 -2.24)" fill="#4e4e4e"/>
      <path id="Path_24" data-name="Path 24" d="M14.049,7.25a6.8,6.8,0,1,0,6.8,6.8A6.805,6.805,0,0,0,14.049,7.25Zm0,11.451A4.652,4.652,0,1,1,18.7,14.049,4.661,4.661,0,0,1,14.049,18.7Z" transform="translate(-0.079 -0.079)" fill="#4e4e4e"/>
    </g>
  </g>
</svg>
