<svg xmlns="http://www.w3.org/2000/svg" width="18.049" height="18.049" viewBox="0 0 18.049 18.049">
  <g id="q" transform="translate(0 9.029) rotate(-45)">
    <g id="Group_3" data-name="Group 3">
      <path id="Path_17" data-name="Path 17" d="M12.762,2.466A2.464,2.464,0,0,0,8.554.723L4.07,5.208A3.8,3.8,0,0,0,.664,6.845,3.756,3.756,0,0,0,.6,11.02,3.807,3.807,0,0,0,3.4,12.737q.2.02.395.02a3.784,3.784,0,0,0,2.67-1.1,3.746,3.746,0,0,0,1.1-2.959l4.484-4.484a2.447,2.447,0,0,0,.723-1.742Zm-1.42,1.045L6.693,8.16a.477.477,0,0,0-.138.421,2.788,2.788,0,0,1-.789,2.374,2.76,2.76,0,0,1-2.262.8,2.817,2.817,0,0,1-2.071-1.276A2.775,2.775,0,0,1,1.479,7.41,2.814,2.814,0,0,1,3.794,6.187a2.651,2.651,0,0,1,.395.026.524.524,0,0,0,.421-.138L9.258,1.427A1.478,1.478,0,0,1,10.3.993a1.451,1.451,0,0,1,1.045.434,1.478,1.478,0,0,1,.434,1.045,1.451,1.451,0,0,1-.434,1.045Z" fill="#4e4e4e"/>
      <path id="Path_18" data-name="Path 18" d="M7.976.143,2.689,5.43A1.807,1.807,0,0,0,0,7,1.807,1.807,0,0,0,1.808,8.8,1.807,1.807,0,0,0,3.616,7a1.743,1.743,0,0,0-.237-.875L8.673.84a.493.493,0,1,0-.7-.7ZM2.393,7.58a.822.822,0,0,1-1.164,0A.811.811,0,0,1,.986,7a.8.8,0,0,1,.243-.579.823.823,0,0,1,.579-.243.8.8,0,0,1,.579.243A.811.811,0,0,1,2.63,7a.8.8,0,0,1-.243.579Z" transform="translate(1.972 1.974)" fill="#4e4e4e"/>
    </g>
  </g>
</svg>
