<svg id="s" xmlns="http://www.w3.org/2000/svg" width="33.225" height="17.89" viewBox="0 0 33.225 17.89">
  <g id="Group_2" data-name="Group 2" transform="translate(0 0)">
    <path id="Path_10" data-name="Path 10" d="M15.343,11.25A8.1,8.1,0,0,0,7.25,19.343a1.287,1.287,0,0,0,1.278,1.278H22.159a1.287,1.287,0,0,0,1.278-1.278A8.1,8.1,0,0,0,15.343,11.25ZM9.959,18.065a5.533,5.533,0,0,1,10.768,0H9.942Z" transform="translate(1.269 -2.731)" fill="#f29a2f"/>
    <path id="Path_11" data-name="Path 11" d="M20.782,9.263a1.286,1.286,0,0,0-1.806,0l-2.4,2.4a1.286,1.286,0,0,0,0,1.806,1.275,1.275,0,0,0,1.806,0l2.4-2.4a1.286,1.286,0,0,0,0-1.806Z" transform="translate(7.57 -4.39)" fill="#f29a2f"/>
    <path id="Path_12" data-name="Path 12" d="M9.472,11.665l-2.4-2.4a1.277,1.277,0,1,0-1.806,1.806l2.4,2.4a1.275,1.275,0,0,0,1.806,0A1.286,1.286,0,0,0,9.472,11.665Z" transform="translate(-0.39 -4.39)" fill="#f29a2f"/>
    <path id="Path_13" data-name="Path 13" d="M12.528,12.213a1.287,1.287,0,0,0,1.278-1.278V7.528a1.278,1.278,0,1,0-2.556,0v3.408A1.287,1.287,0,0,0,12.528,12.213Z" transform="translate(4.084 -6.25)" fill="#f29a2f"/>
    <path id="Path_14" data-name="Path 14" d="M22.936,15.25H19.528a1.278,1.278,0,0,0,0,2.556h3.408a1.278,1.278,0,1,0,0-2.556Z" transform="translate(9.011 0.084)" fill="#f29a2f"/>
    <path id="Path_15" data-name="Path 15" d="M6.936,15.25H3.528a1.278,1.278,0,1,0,0,2.556H6.936a1.278,1.278,0,1,0,0-2.556Z" transform="translate(-2.25 0.084)" fill="#f29a2f"/>
  </g>
</svg>
