<svg xmlns="http://www.w3.org/2000/svg" width="38.537" height="38.537" viewBox="0 0 38.537 38.537">
  <g id="q" transform="translate(0 19.278) rotate(-45)">
    <g id="Group_3" data-name="Group 3" transform="translate(0 0)">
      <path id="Path_17" data-name="Path 17" d="M27.25,5.265a5.262,5.262,0,0,0-8.985-3.72L8.69,11.119a8.113,8.113,0,0,0-7.272,3.5,8.02,8.02,0,0,0-.126,8.915,8.128,8.128,0,0,0,5.967,3.664q.421.042.842.042a8.079,8.079,0,0,0,5.7-2.359,8,8,0,0,0,2.345-6.318l9.575-9.575a5.225,5.225,0,0,0,1.544-3.72ZM24.217,7.5l-9.926,9.926a1.017,1.017,0,0,0-.295.9,5.952,5.952,0,0,1-1.685,5.068A5.893,5.893,0,0,1,7.482,25.1,6.015,6.015,0,0,1,3.06,22.379a5.925,5.925,0,0,1,.1-6.556A6.008,6.008,0,0,1,8.1,13.211a5.661,5.661,0,0,1,.842.056,1.118,1.118,0,0,0,.9-.295l9.926-9.926A3.156,3.156,0,0,1,22,2.12a3.1,3.1,0,0,1,2.232.927,3.156,3.156,0,0,1,.927,2.232,3.1,3.1,0,0,1-.927,2.232Z" transform="translate(0 0)" fill="#2b2d41"/>
      <path id="Path_18" data-name="Path 18" d="M17.03.305,5.742,11.593A3.858,3.858,0,0,0,0,14.948,3.859,3.859,0,0,0,3.861,18.8a3.859,3.859,0,0,0,3.861-3.847,3.721,3.721,0,0,0-.505-1.867l11.3-11.288A1.052,1.052,0,1,0,17.03.305ZM5.11,16.184a1.754,1.754,0,0,1-2.485,0,1.732,1.732,0,0,1-.519-1.235,1.709,1.709,0,0,1,.519-1.235,1.757,1.757,0,0,1,1.235-.519,1.7,1.7,0,0,1,1.235.519,1.732,1.732,0,0,1,.519,1.235A1.709,1.709,0,0,1,5.1,16.184Z" transform="translate(4.211 4.215)" fill="#2b2d41"/>
    </g>
  </g>
</svg>
