<svg xmlns="http://www.w3.org/2000/svg" width="38.033" height="38.033" viewBox="0 0 38.033 38.033">
  <g id="q" transform="translate(0 19.026) rotate(-45)">
    <g id="Group_3" data-name="Group 3" transform="translate(0 0)">
      <path id="Path_17" data-name="Path 17" d="M26.893,5.2a5.193,5.193,0,0,0-8.868-3.672L8.576,10.974A8.007,8.007,0,0,0,1.4,14.424a7.915,7.915,0,0,0-.125,8.8,8.022,8.022,0,0,0,5.889,3.616q.416.042.831.042a7.973,7.973,0,0,0,5.625-2.328,7.893,7.893,0,0,0,2.314-6.235l9.449-9.449A5.157,5.157,0,0,0,26.907,5.2ZM23.9,7.4l-9.8,9.8a1,1,0,0,0-.291.887,5.874,5.874,0,0,1-1.663,5,5.816,5.816,0,0,1-4.766,1.69A5.936,5.936,0,0,1,3.02,22.086a5.847,5.847,0,0,1,.1-6.471,5.93,5.93,0,0,1,4.877-2.577,5.587,5.587,0,0,1,.831.055,1.1,1.1,0,0,0,.887-.291l9.8-9.8a3.114,3.114,0,0,1,2.2-.914,3.057,3.057,0,0,1,2.2.914,3.114,3.114,0,0,1,.914,2.2,3.057,3.057,0,0,1-.914,2.2Z" transform="translate(0)" fill="#f04c46"/>
      <path id="Path_18" data-name="Path 18" d="M16.807.3,5.667,11.441A3.808,3.808,0,0,0,0,14.753a3.808,3.808,0,0,0,3.81,3.8,3.808,3.808,0,0,0,3.81-3.8,3.672,3.672,0,0,0-.5-1.843L18.275,1.77A1.039,1.039,0,1,0,16.807.3ZM5.043,15.972a1.731,1.731,0,0,1-2.452,0,1.71,1.71,0,0,1-.513-1.219,1.686,1.686,0,0,1,.513-1.219,1.734,1.734,0,0,1,1.219-.513,1.677,1.677,0,0,1,1.219.513,1.71,1.71,0,0,1,.513,1.219,1.686,1.686,0,0,1-.513,1.219Z" transform="translate(4.156 4.16)" fill="#f04c46"/>
    </g>
  </g>
</svg>
