<?xml version="1.0" encoding="UTF-8"?><svg xmlns="http://www.w3.org/2000/svg" viewBox="0 0 24 24"><g id="a"/><g id="b"/><g id="c"/><g id="d"/><g id="e"/><g id="f"/><g id="g"/><g id="h"><g><path d="M18.5,5.25h-2.25l-2.6-1.95c-.97-.73-2.33-.73-3.3,0l-2.6,1.95h-2.25c-1.24,0-2.25,1.01-2.25,2.25s1.01,2.25,2.25,2.25h13c1.24,0,2.25-1.01,2.25-2.25s-1.01-2.25-2.25-2.25Zm-7.25-.75c.44-.33,1.06-.33,1.5,0l1,.75h-3.5l1-.75Zm7.25,3.75H5.5c-.41,0-.75-.34-.75-.75s.34-.75,.75-.75h13c.41,0,.75,.34,.75,.75s-.34,.75-.75,.75Z"/><path d="M18.62,11.26c-.41-.07-.79,.21-.86,.62l-1.08,6.49c-.18,1.09-1.11,1.88-2.22,1.88h-4.92c-1.1,0-2.04-.79-2.22-1.88l-1.08-6.49c-.07-.41-.46-.68-.86-.62-.41,.07-.68,.46-.62,.86l1.08,6.49c.3,1.82,1.86,3.13,3.7,3.13h4.92c1.84,0,3.4-1.32,3.7-3.13l1.08-6.49c.07-.41-.21-.79-.62-.86Z"/><path d="M9.83,17.75s.08,0,.12,0c.41-.07,.68-.46,.62-.86l-.83-5c-.07-.41-.45-.68-.86-.62-.41,.07-.68,.46-.62,.86l.83,5c.06,.37,.38,.63,.74,.63Z"/><path d="M14.17,17.75c.36,0,.68-.26,.74-.63l.83-5c.07-.41-.21-.79-.62-.86-.41-.07-.79,.21-.86,.62l-.83,5c-.07,.41,.21,.79,.62,.86,.04,0,.08,0,.12,0Z"/></g></g><g id="i"/><g id="j"/><g id="k"/><g id="l"/><g id="m"/><g id="n"/><g id="o"/><g id="p"/><g id="q"/><g id="r"/><g id="s"/><g id="t"/><g id="u"/></svg>