<svg xmlns="http://www.w3.org/2000/svg" width="22.998" height="24.953" viewBox="0 0 22.998 24.953">
  <g id="h" transform="translate(-3.25 -2.752)">
    <g id="Group_14" data-name="Group 14" transform="translate(3.25 2.753)">
      <path id="Path_61" data-name="Path 61" d="M23.291,6.035H20.334L16.917,3.472a3.627,3.627,0,0,0-4.337,0L9.164,6.035H6.207a2.957,2.957,0,1,0,0,5.914H23.291a2.957,2.957,0,1,0,0-5.914Zm-9.528-.986a1.656,1.656,0,0,1,1.971,0l1.314.986h-4.6Zm9.528,4.928H6.207a.986.986,0,0,1,0-1.971H23.291a.986.986,0,1,1,0,1.971Z" transform="translate(-3.25 -2.753)" fill="#2b2d41"/>
      <path id="Path_62" data-name="Path 62" d="M22.977,11.263a.982.982,0,0,0-1.13.815l-1.419,8.529a2.94,2.94,0,0,1-2.917,2.471H11.044a2.951,2.951,0,0,1-2.917-2.471L6.708,12.078a.985.985,0,1,0-1.945.315l1.419,8.529a4.9,4.9,0,0,0,4.862,4.113H17.51a4.915,4.915,0,0,0,4.862-4.113l1.419-8.529a.982.982,0,0,0-.815-1.13Z" transform="translate(-2.778 -0.083)" fill="#2b2d41"/>
      <path id="Path_63" data-name="Path 63" d="M10.326,19.788h.158a1,1,0,0,0,.815-1.13l-1.091-6.571a.985.985,0,1,0-1.945.315l1.091,6.571a.986.986,0,0,0,.972.828Z" transform="translate(-1.679 -0.079)" fill="#2b2d41"/>
      <path id="Path_64" data-name="Path 64" d="M14.406,19.792a.986.986,0,0,0,.972-.828l1.091-6.571a.985.985,0,1,0-1.945-.315l-1.091,6.571a.982.982,0,0,0,.815,1.13h.158Z" transform="translate(-0.055 -0.083)" fill="#2b2d41"/>
    </g>
  </g>
</svg>
